<mxfile host="app.diagrams.net" modified="2025-02-10T00:00:00.000Z" agent="Python Script" version="15.7.7"><diagram id="diagramId" name="Page-1"><mxGraphModel dx="1264" dy="684" grid="1" gridSize="10" guides="1" tooltips="1" connect="1" arrows="1" fold="1" page="1" pageScale="1" pageWidth="850" pageHeight="1100" math="0"><root><mxCell id="0" /><mxCell id="1" parent="0" /><mxCell id="2" value="Start" style="ellipse;whiteSpace=wrap;html=1;aspect=fixed;fillColor=#000000;fontColor=#ffffff;" vertex="1" parent="1"><mxGeometry x="0" y="0" width="40" height="40" as="geometry" /></mxCell><mxCell id="3" value="Start des Prozesses" style="rounded=1;whiteSpace=wrap;html=1;strokeColor=none;fillColor=#DCE9F1;" vertex="1" parent="1"><mxGeometry x="0" y="0" width="120" height="40" as="geometry" /></mxCell><mxCell id="4" value="Bedingung erf端llt?" style="shape=hexagon;perimeter=hexagonPerimeter2;whiteSpace=wrap;html=1;fixedSize=1;align=center;verticalAlign=middle;fontFamily=Helvetica;fontSize=12;fontColor=#ffffff;fillColor=#00A5E1;strokeColor=none;size=10;" vertex="1" parent="1"><mxGeometry x="0" y="0" width="80" height="40" as="geometry" /></mxCell><mxCell id="5" value="Aktion 1 ausf端hren" style="rounded=1;whiteSpace=wrap;html=1;strokeColor=none;fillColor=#DCE9F1;" vertex="1" parent="1"><mxGeometry x="0" y="0" width="120" height="40" as="geometry" /></mxCell><mxCell id="6" value="Aktion 2 ausf端hren" style="rounded=1;whiteSpace=wrap;html=1;strokeColor=none;fillColor=#DCE9F1;" vertex="1" parent="1"><mxGeometry x="0" y="0" width="120" height="40" as="geometry" /></mxCell><mxCell id="7" value="Aktion 3 ausf端hren" style="rounded=1;whiteSpace=wrap;html=1;strokeColor=none;fillColor=#DCE9F1;" vertex="1" parent="1"><mxGeometry x="0" y="0" width="120" height="40" as="geometry" /></mxCell><mxCell id="8" value="Merge" style="rhombus;whiteSpace=wrap;html=1;strokeColor=none;fillColor=#00A5E1;fontColor=#ffffff;" vertex="1" parent="1"><mxGeometry x="0" y="0" width="50" height="50" as="geometry" /></mxCell><mxCell id="9" value="Prozess beenden" style="rounded=1;whiteSpace=wrap;html=1;strokeColor=none;fillColor=#DCE9F1;" vertex="1" parent="1"><mxGeometry x="0" y="0" width="120" height="40" as="geometry" /></mxCell><mxCell id="10" value="Stop" style="ellipse;whiteSpace=wrap;html=1;aspect=fixed;fillColor=#000000;fontColor=#ffffff;" vertex="1" parent="1"><mxGeometry x="0" y="0" width="40" height="40" as="geometry" /></mxCell><mxCell id="e1" value="" edge="1" source="2" target="3" parent="1" style="edgeStyle=elbowEdgeStyle;elbow=vertical;strokeWidth=1.5;"><mxGeometry relative="1" as="geometry" /></mxCell><mxCell id="e2" value="" edge="1" source="3" target="4" parent="1" style="edgeStyle=elbowEdgeStyle;elbow=vertical;strokeWidth=1.5;"><mxGeometry relative="1" as="geometry" /></mxCell><mxCell id="e3" value="Ja" edge="1" source="4" target="5" parent="1" style="edgeStyle=elbowEdgeStyle;elbow=vertical;strokeWidth=1.5;"><mxGeometry relative="1" as="geometry" /></mxCell><mxCell id="e4" value="Nein" edge="1" source="4" target="6" parent="1" style="edgeStyle=elbowEdgeStyle;elbow=vertical;strokeWidth=1.5;"><mxGeometry relative="1" as="geometry" /></mxCell><mxCell id="e5" value="" edge="1" source="6" target="7" parent="1" style="edgeStyle=elbowEdgeStyle;elbow=vertical;strokeWidth=1.5;"><mxGeometry relative="1" as="geometry" /></mxCell><mxCell id="e6" value="" edge="1" source="5" target="8" parent="1" style="edgeStyle=elbowEdgeStyle;elbow=vertical;strokeWidth=1.5;"><mxGeometry relative="1" as="geometry" /></mxCell><mxCell id="e7" value="" edge="1" source="7" target="8" parent="1" style="edgeStyle=elbowEdgeStyle;elbow=vertical;strokeWidth=1.5;"><mxGeometry relative="1" as="geometry" /></mxCell><mxCell id="e8" value="" edge="1" source="8" target="9" parent="1" style="edgeStyle=elbowEdgeStyle;elbow=vertical;strokeWidth=1.5;"><mxGeometry relative="1" as="geometry" /></mxCell><mxCell id="e9" value="" edge="1" source="9" target="10" parent="1" style="edgeStyle=elbowEdgeStyle;elbow=vertical;strokeWidth=1.5;"><mxGeometry relative="1" as="geometry" /></mxCell></root></mxGraphModel></diagram></mxfile>